<?xml version="1.0" encoding="utf-8"?>
<!-- Generator: Adobe Illustrator 24.0.2, SVG Export Plug-In . SVG Version: 6.00 Build 0)  -->
<svg version="1.1" id="Layer_1" xmlns="http://www.w3.org/2000/svg" xmlns:xlink="http://www.w3.org/1999/xlink" x="0px" y="0px"
	 viewBox="0 0 1080 1080" style="enable-background:new 0 0 1080 1080;" xml:space="preserve">
<style type="text/css">
	.st0{fill:#E63D63;}
	.st1{fill:#CE2D57;}
	.st2{fill:#231F20;}
	.st3{fill:#FFFFFF;}
	.st4{fill:#171717;}
	.st5{fill:#56C3BB;}
	.st6{fill:#7CCDCB;}
</style>
<g>
	<circle class="st0" cx="540" cy="540" r="539.92"/>
	<path class="st1" d="M341.96,486.97c13.12,1.34,22.87-7.5,33.68-13.7c18.64-10.7,38.27-18.93,58.56-26.12
		c38.38-13.59,70.58-35.4,107.7-52.13c42.15-19.01,93.13-30.39,129.92-53.33c-38.12,15.19-70.42,36.64-111.11,48.01
		c-27.41,7.65-53.52,13.91-79.31,26.02c8.6-16.96,33.32-28.12,49.89-38.24c-22.53,0.22-76.95,27.11-94.58,40.44
		c11.29,2.33,23.44-3.88,34.51-6.61c-51.06,40.21-128.53,43.88-179.57,83.66c21.3-6.33,45.03-19.59,62.78-27.29
		c-25.22,20.11-51.04,53.78-82.61,62.71c21.29-13.8,39.06-32.87,61.14-45.39C341.24,480.3,351.1,477.12,341.96,486.97z"/>
	<path class="st1" d="M483.2,335.92c27.05-1.47,59.21-15.7,86.24-21.96c38.2-8.84,76.49-19.65,115.59-24.06
		c33.45-3.77,67.48,1.9,100.91-2.76c13.51-1.88,26.61-6.98,39.99-8.09c-21.27,2.48-43.21,14.02-63.24,21.66
		c9.33,0.13,18.39-1.2,27.64-2.25c-1.5,1.65-2.97,2.86-4.63,4.25c11.52,0.98,21.92-4.6,32.55-8.25c-4.92,3.19-9.49,6.64-14.67,9.53
		c9.97-3.99,19.19-10.35,29.02-14.31c-0.67,0.17-1.02,0.58-1.07,1.21c6.97-1.63,12.87-4.92,19.45-8.25
		c-20.04,29.05-61.52,62.08-92.63,79.05c51.09-30.37,104.3-57.47,155.7-86.68c-12.71,0.24-25.55-0.95-37.95,2.24
		c7.85-4.56,14.6-10.65,20.5-17.58c-3.26,1.24-9.47,1.77-12.97,3.33c3.71-6.23,8.74-11.76,14.86-15.53
		c-108.33,3.95-211.43,20.35-317.63,40.88c-67.92,13.13-125.63,37.96-187.3,67.28c19.52-0.13,39.4-10.14,57.93-15.62
		c-18.48,15.86-42.57,28.32-62.37,43.58c-15.29,11.79-31.44,24.88-48.54,34.02c26.72-19.55,53.46-44.22,83.53-58.09
		C446.07,349.38,468.3,340.53,483.2,335.92z"/>
	<path class="st1" d="M196.68,742.06c5.78-1.12,28.38-12.69,40.81-15c31.96-5.94,64.08,2.94,93.65,12.18
		c59.71,18.66,119.01,20.55,172.33-0.2c-53.09,3.48-97.94,45.3-154.41,26.51c36.59,19.7,77.11,42.41,120.24,41.92
		c-25.86-0.72-51.68,5.6-77.69,2.97c-31.89-3.23-55.84-20.62-84.41-32.54c-45.02-18.77-98.77-8.83-145.41-0.12
		c32.49-2.3,60.1-27.54,93.65-29.85c-43.82,0.36-100.48-9.47-141.6,5.71c6.53-48.47,122.34-59.95,158.89-67.76
		c-25.91,13.06-52.28,25.37-78.11,38.47c45.79-5.2,91.59-21.28,138.46-26.94C308.9,696.42,237.08,707.66,196.68,742.06z"/>
	<path class="st1" d="M471.5,679.51c109.11-1.65,257.36,51.61,351.85-24.56c-71.65,23.76-132.93,26.51-208.21,27.75
		c98.45-24.27,254.77-105.7,273.23-215.3c-4.62,32.76-54.97,66.38-79.15,87.54c-27.38,23.96-57.35,43.22-88.15,62.32
		c-29.38,18.21-62.08,42.61-95.01,53.96C594.41,682.13,538.01,666.85,471.5,679.51z"/>
	<path class="st1" d="M994.06,565.37c4.3,59.85,2.96,90.16-3.54,149.57c-4.14,37.86-33.74,114.97-52.75,148.36
		c50.6-74.36,65.47-89.42,90.6-186.47c22.61-87.3,35.53-227.23-36.95-336.59c-27.71,14.74-109.2,74.71-118.31,106.17
		c26.38-6.71,49.32-15.62,75.08-20.28c1.28,11.33-13.64,24-19.81,32.27c6.72-1.38,16.97-8.87,20.24-13.03
		c-0.02,1.65,0.41,1.93-0.12,3.93c1.36-1.19,2.7-2.47,4.09-3.7c0.2,0.55,0.34,1.11,0.44,1.68c10.14-4.7,9.65-15.8,13.32-25.06
		c11.01,29.45,14.15,61.29,3.37,91.61c-7.26,20.42-23.82,35.8-31.44,55.47c0.57-10.34,7.48-19.43,10.86-29.13
		c-0.64,0.35-0.76,1.47-1.46,1.55c1.59-2.58,2.9-4.93,4.9-7.32c-19.82,30.17-39.09,60.92-58.61,91.46
		c17.18-12.72,35.09-27.29,50.67-42.08c-2.42,2.99-4.94,5.92-7.57,8.74c2.82-3.66,6.28-7.15,9.91-9.62
		c-2.92,2.57-4.39,5.5-6.08,8.88c3.79-1.84,7.41-4.63,10.96-6.97c6.52,16.68-22.37,52.61-29.04,66.68
		c14.14-12.07,24.7-29.79,34.41-45.35c7.95-12.75,19.44-26.13,23.16-40.97c1.6-6.36-0.54-14.97,3.26-19.96
		c1.8,12.44-4.04,27.2-5.32,39.85c-2.93,28.97-3.32,58.64-2.1,87.75c13.93-22.11,18.12-57.54,24.63-83.06
		c2.39-9.38,3.33-18.21,2.84-27.78c-4.17-0.71-7.54,0.95-9.4,4.36c5.65-0.56,12.94-0.89,16.3,3.3c6.1,7.59,2.8,35.38,4.78,45.93
		c4.33,23.03,3.82,41.59-12.73,60.27C1006.13,647.02,1031.65,580.31,994.06,565.37z"/>
	<path class="st1" d="M430.19,943.68c20.23-2.27,77.65,18.55,89.77,1.78c-10.76-13.62-42.05-13.26-58.02-17.3
		c-27.61-6.98-56-19.72-85.07-17.68c69.78-0.05,147.89,20.48,222.59,13.7c27.35-2.48,54.25-1.37,81.71-2.74
		c22.41-1.12,43.76-10.85,65.03-12.71c-44.04,11.07-97.75,10.52-142.85,3.21c-73.03-11.84-151.37-27.12-219.74-55.96
		c-18.96-8-39.83-23.45-60.2-26.4c67.34,11.68,129.96,37.68,199.5,37.36c-17.13-9.15-38.15-10.37-56.34-17.73
		c-28.29-11.43-49.25-25.95-79.74-31.85c-55.32-10.7-110.33-26.78-166.55-27.02c-15.1,4.31-29.98,3.6-44.74,2.46
		c3.59,3.17,6.15,7.96,11.42,10.85c-19.29-3.83-35.3-13.4-56.1-10.8c30.67,36.26,76.35,77.22,123.86,89.32
		c-27.05-0.79-52.27-11.31-79.96-11.18c44.9,15.22,79.52,46.31,119.42,70.36c29.01,17.49,49.27,34.67,81.66,44.18
		c29.37,8.62,122.79,45.09,153.52,17.47c-20.25,0-41.44-0.81-61.67-1.61c-12.44-0.49-23.19-6.64-35.42-7.83
		c8.37-2.15,23.2,0.11,29.42-5.02c-2.27-3.97-7.32-5.28-11.68-6.55c0.25,0.04,1.91-0.03,2.22-0.13
		c-12.71,0.76-25.65-10.06-36.13-15.11c-35.92-17.33-76.17-24.58-110.77-44.63c-13.91-8.06-26.03-19.24-40.49-26.09
		c8.16-0.85,18.32,8.02,25.87,10.77c19.31,7.04,34.21,18.35,52.08,28.12c13.29,7.27,48.43,26.64,63.27,18.7
		c-2.58-1.37-4.9-4.08-6.87-5.74C411.11,947.06,418.73,944.97,430.19,943.68z"/>
	<path class="st1" d="M579.61,89.44c25.97,0,52.67-1.99,78.25,3.24c27.78,5.67,55.95,18.62,81.93,29.83
		c29.92,12.91,59.16,31.72,89.14,41.6c-18.69-14.54-45.48-29.32-67.17-39.53c-26.63-12.53-50.42-27.38-79.5-33.7
		c-25.05-5.45-49.52-8.06-75.1-8.06c-23.55,0-65.15-7.61-83.8,6.29C547.41,92.36,569.83,77.47,579.61,89.44z"/>
	<path class="st1" d="M323.87,213.14c8.2-2.69,14.01-10.13,20.78-15.45c13.76-10.8,29-18.35,44.67-26.01
		c28.34-13.85,56.42-29.53,86.37-39.78c51.51-17.64,105.53-22.71,159.57-22.71c-42.07,0-84.17-3.28-125.14,6.22
		c-30.75,7.13-82.7,12.68-107.58,30.51c7.89-6.91,18.47-11.79,27.97-16.16c-7.32,0.78-14.44,2.67-21.77,3.36
		c3.09-6.6,13.27-13.4,20.27-17.84c-10.5,0.29-19.66,6.95-29.79,9.42c5.18-9.32,29.32-18.9,40.07-24.74
		c18.52-10.05,39.94-17.77,60.35-22.85c-26.3-1.8-57.91,14.17-82.31,22.61c-24.23,8.37-48.78,17.33-72.47,26.99
		c-21.02,8.57-42.64,18.22-60.79,31.87c-13.44,10.11-24.65,24.12-39.6,32.03c39.83-1.18,73.66-39.87,112.57-49.63
		c-26.71,16.91-53.74,37.65-78.08,57.96c-5.09,4.25-10.25,5.18-12.68,12.6c9.1-5.54,19.22-14.16,28.66-17.32
		c-0.75,1.45-2.12,3.1-2.9,4.37c11.75-0.77,23.07-6.52,34.27-10.14c-5.62,13.24-18.81,21.8-29.52,31.03
		c-20.74,17.89-39.84,36.47-57.36,57.59c18.47-1.43,37.68-26.01,53.8-35.32c8.14-4.7,22.17-8.01,27.43-16.59
		c7.39-12.06,2.4-23.16,17.59-32.8"/>
	<g>
		<path class="st2" d="M102.93,666.77c19.85-30.06,43.48-57.63,69.99-82.01c53.02-48.76,117.82-84.94,187.62-103.06
			c-23.4,15.61-45.51,33.15-66.04,52.37c144.09-45.45,275.59-130.14,376.57-242.52c-25.81,40.17-34.21,83.93-55.36,126.75
			c100.58-46.09,184.33-97.98,281.28-151.29c-17.2,37.17-66.08,68.13-102.54,98.58c68.52-13.86,131.08-61.21,188.87-86.09
			c-17.94,67.88-118.06,174.87-167.74,224.48c25.7,13.93,43.79-28.62,94.72-39.56C842.7,538.2,746.52,637.71,627.9,673.94
			c38.89,16.26,112.49-21.91,137.53-37.83c-30.67,60.78-143.44,95.92-214.88,84.9c-71.44-11.02-169.6-55.52-240.62-42.03
			c32.13-6.08,74.84,28.76,104.59,42.34c-46.64-5.58-74.14,13.03-121.03,15.93c-32.67,2.02-64.92-7.41-97.6-9.26
			c-39.54-2.24-88.03-11.51-122.68,7.66c-0.41-12.89,5.81-25.06,11.91-36.43C90.91,688.45,96.2,676.97,102.93,666.77z"/>
		<g>
			<g>
				<g>
					<g>
						<path class="st3" d="M117.29,702.12c-1.9,0-3.79-0.7-5.27-2.11c-2.93-2.79-3.17-7.38-0.56-10.46
							c1.61-1.9,16.72-19.23,51.15-42.65c44.08-29.98,99.13-56.37,163.62-78.43c3.09-1.05,6.19-2.1,9.36-3.14
							c19.96-6.6,41.1-12.87,62.84-18.63c115.34-30.47,222.79-67.37,319.37-109.68l3.13-1.37c96.23-42.37,155.94-77.23,189.12-99.05
							c9.49-7.2,19.27-14.18,29.08-20.73c1.3-0.87,2.78-1.29,4.24-1.29c2.35,0,4.67,1.08,6.16,3.12c2.42,3.29,1.81,7.9-1.37,10.46
							c-4.18,3.37-13.4,10.44-29.28,20.9c-51.52,39.18-81.96,75.95-85.98,80.92c-37.32,73.87-128.41,139.22-243.9,174.91
							c-7.66,2.39-15.83,4.72-24.25,6.93c-0.22,0.07-0.46,0.14-0.7,0.2c-16.59,4.38-33.58,8.09-50.49,11.04
							c-11.93,2.11-24.26,3.89-36.63,5.29c-22.78,2.61-45.84,3.94-68.54,3.94c-6.17,0-12.42-0.1-18.56-0.29
							c-7.36-0.23-14.74-0.35-21.95-0.35c-170.18,0-242.4,65.61-245.39,68.4C121.03,701.43,119.16,702.12,117.29,702.12z"/>
						<path class="st4" d="M943.38,322.22h0.02 M943.38,322.22c-1.43,1.15-10.43,8.46-28.91,20.62
							C923.48,336,933.12,329.08,943.38,322.22 M914.48,342.84c-56.81,43.16-88.03,83.01-88.03,83.01
							c-36.21,72.42-127.19,136.99-239.69,171.76c-7.94,2.47-16,4.76-24.15,6.9c-0.12,0.03-0.24,0.09-0.4,0.12
							c-16.3,4.3-32.97,7.97-49.95,10.93c-11.91,2.11-24,3.85-36.18,5.22c-22.26,2.55-44.89,3.89-67.69,3.89
							c-6.09,0-12.2-0.1-18.31-0.29c-7.56-0.24-14.97-0.36-22.19-0.36c-172.69-0.01-246.17,66.32-250.6,70.46
							c3.39-4,58.47-66.46,211.42-118.79c3.05-1.04,6.14-2.08,9.28-3.11c19.3-6.38,40.06-12.58,62.4-18.5
							c131.19-34.65,237.4-73.67,320.48-110.06c1.04-0.46,2.11-0.92,3.14-1.37C822.35,399.34,882.56,363.84,914.48,342.84
							 M943.4,306.95h-0.02c-3.21,0-6.19,0.99-8.65,2.69c-9.8,6.56-19.58,13.53-29.07,20.72c-32.99,21.67-92.25,56.23-187.79,98.3
							l-1.53,0.67l-1.63,0.71c-96.19,42.14-203.26,78.91-318.21,109.27c-21.88,5.8-43.18,12.11-63.3,18.77
							c-3.18,1.05-6.31,2.1-9.4,3.15c-155.5,53.2-212.2,116.35-218.15,123.38c-5.23,6.17-4.74,15.34,1.12,20.92
							c2.95,2.81,6.74,4.21,10.53,4.21c3.74,0,7.48-1.37,10.42-4.11c2.9-2.71,72.99-66.35,240.18-66.35c7.13,0,14.44,0.12,21.7,0.35
							c6.22,0.2,12.55,0.3,18.8,0.3c22.99,0,46.35-1.34,69.43-3.99c12.49-1.41,24.99-3.21,37.1-5.35
							c17.06-2.98,34.22-6.73,50.99-11.15c0.38-0.09,0.71-0.19,1-0.28c8.45-2.22,16.65-4.57,24.38-6.98
							c117.01-36.17,209.58-102.64,248.05-178.01c5.35-6.54,34.94-41.57,83.96-78.87c11.82-7.79,22.25-15.24,29.44-21.02
							c3.6-2.79,5.92-7.16,5.92-12.06C958.66,313.79,951.83,306.95,943.4,306.95L943.4,306.95z M943.38,337.48h0.02H943.38
							L943.38,337.48z"/>
					</g>
					<path class="st5" d="M720.88,444.01c-16.79,40.15-55.9,112.5-130.03,148.99c-8.91,4.4-18.29,8.27-28.24,11.51
						c-0.12,0.03-0.24,0.09-0.4,0.12c-3.17,1.04-6.41,1.98-9.71,2.9c-13.98,3.79-27.42,6.41-40.24,8.03
						c-10.93,1.43-21.37,2.11-31.42,2.17c-77.88,0.73-128.47-33.92-142.85-45.15c19.3-6.38,40.06-12.58,62.4-18.5
						C531.59,519.42,637.8,480.4,720.88,444.01z"/>
				</g>
				<path class="st3" d="M739.27,484.21c-12.29-8.71-45.29,2.32-60.73,3.86c-13.43,1.34-31.97-0.7-41.91,7.7
					C650.59,498.78,737.41,501.39,739.27,484.21z"/>
				<path class="st3" d="M349.51,592.81c26.79-11.23,53.19-36.05,82.46-39.02C419.05,567.83,379.35,612.37,349.51,592.81z"/>
				<path class="st6" d="M447.63,558.89c-6.08,6.1-10.89,14.95-15.16,22.68c18.86,0.23,36.58,8.68,55.69,7.91
					c14.34-0.58,28.89-2.36,42.97-7.11c21.78-7.35,40.85-10.13,61.23-20.5c25.65-13.05,49.57-34.66,71.59-52.82
					c-10.3-0.43-22.07-5.15-31.14-10.16c2.71,0.28,9.49,3.13,6.65,7.09c-4.7,6.55-15.11,5.88-22.2,5.93
					c4.52,2.22,7.9,6.11,8.88,11.11c-9.74,0.46-19.65-0.27-29.37,0.36c0.58,14.65-4.17,23.89-19.26,22.74
					c-18.75-1.43-16.79-21.11-31.57-29.05c-1.69,14.09-8.16,51.37-24.39,29.82c-10.37,5.14-16.38,18.49-25.31,26.02
					c0.37-2.31-0.61-5.26-0.34-7.59c-5.55,2.85-17.07,12.95-23.68,7.68c-4.36-3.48,0.87-9.91-1.54-14
					c-2.7-4.57-13.47-10.96-17.71-12.71C452.63,551.08,450.7,555.43,447.63,558.89z"/>
			</g>
			<g>
				<path class="st3" d="M195.74,628.85c10.36-0.36,17.88,9.38,23.52,18.08"/>
				<g>
					<path class="st4" d="M195.74,635.72c8.19,0.06,13.58,8.56,17.59,14.68c4.82,7.37,16.73,0.49,11.86-6.93
						c-6.91-10.55-15.74-21.38-29.45-21.48C186.9,621.92,186.89,635.65,195.74,635.72L195.74,635.72z"/>
				</g>
			</g>
		</g>
	</g>
	<path class="st1" d="M134.53,359.08c-0.29,49.66-31.64,98.65-17.97,146.39c4.56-10.92,10.49-21.28,17.59-30.75
		c-0.57,10.99-3.51,21.85-8.55,31.63c-1.51-0.12-0.75-2.96,0.75-2.74c1.5,0.22,2.15,2.15,1.78,3.62c-2.26,8.83-4.53,17.67-6.79,26.5
		c6.75-2.29,14.96,1.41,17.72,7.98c8.52-4.71,18.54-6.67,28.2-5.5c-12.22,14.52-22.91,30.3-31.93,47
		c-4.84,8.97-14.53,46.92-22.62,50.73c-15.99,7.53-19.96-51.23-21.09-62.21c-3.73-36.52-1.86-73.61,5.36-109.6
		c3.61-17.99,8.56-35.72,14.83-52.97C116.48,396.32,134.45,371.82,134.53,359.08z"/>
</g>
</svg>
